<svg x="0px" y="0px" viewBox="0 0 140 27.1" enable-background="new 0 0 140 27.1" width="140" height="28">
  <circle class="logo small" cx="21.1" cy="21.1" r="5.8"></circle>
  <path class="logo" d="M15.3,6.3c0-0.2,0-0.3,0-0.5c0-3.2,2.6-5.8,5.8-5.8c3.2,0,5.8,2.6,5.8,5.8c0,0.1,0,0.2,0,0.3
  c0.1,6.3,2.8,9.1,9,9.2c0.2,0,0.3,0,0.5,0c3.2,0,5.8,2.6,5.8,5.8c0,3.2-2.6,5.8-5.8,5.8c-3.2,0-5.8-2.6-5.8-5.8c0-0.2,0-0.3,0-0.5
  c-0.1-6.2-2.9-9-9.2-9c-0.1,0-0.2,0-0.3,0c-0.2,0-0.3,0-0.5,0c-6.2,0.1-9,2.9-9,9.2c0,0.1,0,0.2,0,0.3c0,3.2-2.6,5.8-5.8,5.8
  c-3.2,0-5.8-2.6-5.8-5.8c0-3.2,2.6-5.8,5.8-5.8c0.1,0,0.2,0,0.3,0C12.4,15.2,15.2,12.5,15.3,6.3z"></path>
  <path class="name" d="M65.1,18.4h-6.3L57.7,22h-3.8l6.5-17.7h3.3L70.2,22h-3.8L65.1,18.4z M59.8,15.4h4.4L62,8.8L59.8,15.4z"></path>
  <path class="name" d="M78.7,18.4c0-0.4-0.2-0.8-0.6-1c-0.4-0.2-1.1-0.5-2-0.7c-3.1-0.7-4.6-2-4.6-4c0-1.2,0.5-2.1,1.4-2.9
  c1-0.8,2.2-1.2,3.7-1.2c1.6,0,3,0.4,3.9,1.2c1,0.8,1.5,1.8,1.5,3.1h-3.5c0-0.5-0.2-0.9-0.5-1.2c-0.3-0.3-0.8-0.5-1.5-0.5
  c-0.6,0-1,0.1-1.4,0.4c-0.3,0.3-0.5,0.6-0.5,1c0,0.4,0.2,0.7,0.5,0.9c0.4,0.2,1,0.4,1.8,0.6c0.9,0.2,1.6,0.4,2.2,0.6
  c1.8,0.7,2.7,1.9,2.7,3.5c0,1.2-0.5,2.2-1.5,2.9c-1,0.7-2.3,1.1-3.9,1.1c-1.1,0-2-0.2-2.9-0.6c-0.8-0.4-1.5-0.9-2-1.6
  c-0.5-0.7-0.7-1.4-0.7-2.2h3.3c0,0.6,0.3,1.1,0.7,1.4c0.4,0.3,1,0.5,1.7,0.5c0.7,0,1.2-0.1,1.5-0.4C78.5,19.1,78.7,18.8,78.7,18.4
  z"></path>
  <path class="name" d="M96.4,15.6c0,2-0.5,3.7-1.4,4.9c-0.9,1.2-2.1,1.8-3.7,1.8c-1.3,0-2.4-0.5-3.2-1.4v6.2h-3.5V8.9h3.2l0.1,1.3
  c0.8-1,1.9-1.5,3.3-1.5c1.6,0,2.8,0.6,3.7,1.8c0.9,1.2,1.3,2.9,1.3,5V15.6z M92.9,15.3c0-1.2-0.2-2.2-0.6-2.8c-0.4-0.7-1-1-1.9-1
  c-1.1,0-1.8,0.4-2.2,1.3v5.4c0.4,0.9,1.2,1.3,2.3,1.3C92.1,19.4,92.9,18.1,92.9,15.3z"></path>
  <path class="name" d="M99,5.5c0-0.5,0.2-1,0.5-1.3s0.8-0.5,1.4-0.5c0.6,0,1.1,0.2,1.4,0.5c0.4,0.3,0.5,0.8,0.5,1.3
  c0,0.5-0.2,1-0.5,1.3c-0.4,0.3-0.8,0.5-1.4,0.5s-1.1-0.2-1.4-0.5C99.2,6.4,99,6,99,5.5z M102.7,22h-3.5V8.9h3.5V22z"></path>
  <path class="name" d="M113.2,12.2c-0.5-0.1-0.9-0.1-1.2-0.1c-1.3,0-2.2,0.4-2.6,1.3V22h-3.5V8.9h3.3l0.1,1.6
  c0.7-1.2,1.7-1.8,2.9-1.8c0.4,0,0.7,0.1,1.1,0.2L113.2,12.2z"></path>
  <path class="name" d="M121.1,22.3c-1.9,0-3.4-0.6-4.6-1.8c-1.2-1.2-1.8-2.8-1.8-4.7v-0.3c0-1.3,0.3-2.5,0.8-3.5
  c0.5-1,1.2-1.8,2.1-2.4c0.9-0.6,2-0.8,3.2-0.8c1.8,0,3.2,0.6,4.2,1.7c1,1.1,1.5,2.7,1.5,4.8v1.4h-8.2c0.1,0.9,0.4,1.5,1,2.1
  c0.6,0.5,1.3,0.8,2.1,0.8c1.3,0,2.4-0.5,3.1-1.5l1.7,1.9c-0.5,0.7-1.2,1.3-2.1,1.7C123.1,22.1,122.2,22.3,121.1,22.3z M120.7,11.5
  c-0.7,0-1.2,0.2-1.7,0.7c-0.4,0.5-0.7,1.1-0.8,2h4.8v-0.3c0-0.8-0.2-1.4-0.6-1.8C122,11.7,121.4,11.5,120.7,11.5z"></path>
  <path class="name" d="M128.3,15.4c0-2.1,0.5-3.7,1.4-4.9c0.9-1.2,2.1-1.8,3.7-1.8c1.3,0,2.3,0.5,3.1,1.4V3.4h3.5V22h-3.1
  l-0.2-1.4c-0.9,1.1-2,1.6-3.3,1.6c-1.5,0-2.7-0.6-3.7-1.8C128.8,19.2,128.3,17.5,128.3,15.4z M131.8,15.6c0,1.2,0.2,2.2,0.6,2.8
  c0.4,0.7,1,1,1.8,1c1.1,0,1.8-0.5,2.3-1.4v-5.2c-0.4-0.9-1.2-1.4-2.2-1.4C132.6,11.5,131.8,12.8,131.8,15.6z"></path>
</svg>