<svg xmlns="http://www.w3.org/2000/svg" width="57" height="56" viewBox="0 0 57.6 56" enable-background="new 0 0 57.6 56">
    <path class="brief__icon" d="M53.1 56h-48.5v-30.3c0-.7.5-1.2 1.2-1.2s1.2.5 1.2 1.2v27.9h43.7v-27.9c0-.7.5-1.2 1.2-1.2s1.2.5 1.2 1.2v30.3zM24 56h-9.7v-26.7h9.7v26.7zm-7.3-2.4h4.9v-21.9h-4.9v21.9zM31.3 56h-9.7v-26.7h9.7v26.7zm-7.3-2.4h4.9v-21.9h-4.9v21.9zM45.9 39h-9.6v-9.6h9.6v9.6zm-7.2-2.4h4.8v-4.8h-4.8v4.8zM8.1 7.4c-.7 0-1.2-.5-1.2-1.2v-6l43.8-.2v6c0 .7-.5 1.2-1.2 1.2s-1.2-.5-1.2-1.2v-3.6l-39 .2v3.6c0 .7-.6 1.2-1.2 1.2zM6.6 21.7c-3 0-5.8-2-6.5-5.1v-.1c-.2-1.1.1-2.3.8-3.1l6.7-8.4 42.5-.2 6.6 8.3c.7.8 1 2 .8 3.1v.1c-.7 3-3.4 5.1-6.5 5.1-1.8 0-3.5-.6-4.8-1.9-.3-.3-.6-.6-.8-1-1.2 1.7-3.2 2.9-5.5 2.9s-4.3-1.1-5.6-2.8c-1.2 1.8-3.2 2.9-5.5 2.9s-4.3-1.1-5.6-2.9c-1.2 1.7-3.2 2.9-5.4 2.9h-.1c-1.8 0-3.4-.7-4.7-1.9-.3-.3-.6-.6-.8-1-.9 1.4-2.3 2.4-3.9 2.8-.5.2-1.1.3-1.7.3zm-4.2-5.7c.6 2.3 3 3.7 5.3 3.1 1.9-.5 3.2-2.2 3.3-4.2h2.4c0 1.2.5 2.2 1.3 3 .8.8 1.9 1.3 3.1 1.2 2.3 0 4.3-2 4.3-4.3h2.4c0 2.4 2 4.3 4.3 4.3 2.4 0 4.3-2 4.3-4.4h2.4c0 2.4 2 4.3 4.3 4.3h.1c2.3 0 4.3-2 4.3-4.3h2.4c0 1.2.5 2.2 1.3 3.1.8.8 2 1.2 3.1 1.2 2 0 3.7-1.4 4.1-3.3.1-.4 0-.8-.3-1v-.1l-5.9-7.4-40.2.2-6 7.5c-.2.4-.3.8-.3 1.1z"></path>
</svg>