<svg width="46" height="46">
    <g transform="rotate(0, 23, 23) scale(1 -1) translate(0 -46)">
    <circle cx="23" cy="23" r="22" class="circle--top circle--gray" stroke-width="2" stroke="#ccc" fill="transparent"/>
    </g>
    <circle cx="23" cy="23" r="22" class="circle--bottom circle--gray" stroke-width="2" stroke="#ccc" fill="transparent"/>
    <path transform="translate(14, 14)" id="Fill-406" class="st24" d="M9 6.8c-1.2 0-2.3 1-2.3 2.3s1 2.3 2.3 2.3 2.3-1 2.3-2.3-1.1-2.3-2.3-2.3"></path>
    <path transform="translate(14, 14)" d="M9 12.8c-2.1 0-3.8-1.7-3.8-3.8s1.7-3.7 3.8-3.7 3.8 1.7 3.8 3.8-1.7 3.7-3.8 3.7m8.4-5.3l-1-.2c-.4-.1-.8-.4-1-.8-.2-.4-.1-.9.2-1.2l.6-.9c.2-.3.2-.7-.1-1l-1.3-1.3c-.3-.3-.7-.3-1-.1l-.8.6c-.4.3-.8.3-1.2.1-.4-.2-.7-.5-.8-1l-.2-1c0-.4-.3-.7-.7-.7h-1.9c-.4 0-.7.3-.7.6l-.3 1.3c-.1.4-.3.8-.8.9-.4.2-.8.2-1.2-.1l-1.1-.7c-.3-.2-.7-.2-1 .1l-1.2 1.3c-.3.3-.3.7-.1 1l.6.9c.3.4.3.8.2 1.2-.2.4-.6.7-1 .8l-1 .2c-.3 0-.6.3-.6.7v1.9c0 .4.3.7.6.7l1 .2c.4.1.8.3 1 .8.2.4.1.9-.1 1.2l-.5.9c-.2.3-.2.7.1 1l1.3 1.3c.3.3.7.3 1 .1l.9-.6c.4-.3.8-.3 1.2-.2.4.2.7.5.8 1l.2 1c0 .2.3.5.7.5h1.9c.4 0 .7-.3.7-.6l.1-.7c.1-.5.4-.8.8-1 .4-.2.9-.1 1.3.2l.6.4c.3.2.7.2 1-.1l1.3-1.3c.3-.3.3-.7.1-1l-.6-.9c-.3-.4-.3-.8-.1-1.2.2-.4.5-.7 1-.8l1-.2c.4-.1.6-.4.6-.7v-1.9c.1-.4-.2-.7-.5-.7"></path>
    <g transform="rotate(-180, 23, 23)">
    <circle id="fon" cx="23" cy="23" r="22" class="circle--top circle--orange" stroke="#e35b29" stroke-width="2"   stroke-dasharray="69.5 69.5" fill="none" />
    </g>
    <g transform="rotate(0, 23, 23) scale(-1, 1) translate(-46 0)">
    <circle id="fon" cx="23" cy="23" r="22" class="circle--bottom circle--orange" stroke="#e35b29" stroke-width="2"   stroke-dasharray="69.5 69.5" fill="none" />
    <g>
</svg>