<svg width="46" height="46">
    <g transform="rotate(0, 23, 23) scale(1 -1) translate(0 -46)">
    <circle cx="23" cy="23" r="22" class="circle--top circle--gray" stroke-width="2" stroke="#ccc" fill="transparent"/>
    </g>
    <circle cx="23" cy="23" r="22" class="circle--bottom circle--gray" stroke-width="2" stroke="#ccc" fill="transparent"/>
    <path transform="translate(14, 14)" d="M17 0h-16v2h16v-2zm1 10v-2l-1-5h-16l-1 5v2h1v6h10v-6h4v6h2v-6h1zm-9 4h-6v-4h6v4z"></path>
    <g transform="rotate(-180, 23, 23)">
    <circle id="fon" cx="23" cy="23" r="22" class="circle--top circle--orange" stroke="#e35b29" stroke-width="2"   stroke-dasharray="69.5 69.5" fill="none" />
    </g>
    <g transform="rotate(0, 23, 23) scale(-1, 1) translate(-46 0)">
    <circle id="fon" cx="23" cy="23" r="22" class="circle--bottom circle--orange" stroke="#e35b29" stroke-width="2"   stroke-dasharray="69.5 69.5" fill="none" />
    <g>
</svg>