<svg version="1.1" xmlns="http://www.w3.org/2000/svg" width="42" height="56" xmlns:xlink="http://www.w3.org/1999/xlink" viewBox="0 0 42 56" style="enable-background:new 0 0 42 56;" xml:space="preserve">
    <g>
        <path class="st0" d="M35.5,14.3H19c-0.7,0-1.2,0.5-1.2,1.2c0,0.7,0.5,1.2,1.2,1.2h16.5c0.7,0,1.2-0.5,1.2-1.2
            C36.7,14.8,36.2,14.3,35.5,14.3z"></path>
        <path class="st0" d="M35.5,19.9H19c-0.7,0-1.2,0.5-1.2,1.2s0.5,1.2,1.2,1.2h16.5c0.7,0,1.2-0.5,1.2-1.2S36.2,19.9,35.5,19.9z"></path>
        <path class="st0" d="M35.5,25.6H19c-0.7,0-1.2,0.5-1.2,1.2c0,0.7,0.5,1.2,1.2,1.2h16.5c0.7,0,1.2-0.5,1.2-1.2
            C36.7,26.2,36.2,25.6,35.5,25.6z"></path>
        <path class="st0" d="M35.5,31.3H19c-0.7,0-1.2,0.5-1.2,1.2c0,0.7,0.5,1.2,1.2,1.2h16.5c0.7,0,1.2-0.5,1.2-1.2
            C36.7,31.8,36.2,31.3,35.5,31.3z"></path>
        <path class="st0" d="M35.5,36.9H19c-0.7,0-1.2,0.5-1.2,1.2c0,0.7,0.5,1.2,1.2,1.2h16.5c0.7,0,1.2-0.5,1.2-1.2
            C36.7,37.5,36.2,36.9,35.5,36.9z"></path>
        <path class="st0" d="M35.5,42.6H19c-0.7,0-1.2,0.5-1.2,1.2c0,0.7,0.5,1.2,1.2,1.2h16.5c0.7,0,1.2-0.5,1.2-1.2
            C36.7,43.2,36.2,42.6,35.5,42.6z"></path>
        <path class="st0" d="M35.5,48.3H19c-0.7,0-1.2,0.5-1.2,1.2c0,0.7,0.5,1.2,1.2,1.2h16.5c0.7,0,1.2-0.5,1.2-1.2
            C36.7,48.8,36.2,48.3,35.5,48.3z"></path>
        <path class="st0" d="M38.4,4.2h-9.6V2.6c0-1.4-1.2-2.6-2.6-2.6H15.8c-1.4,0-2.6,1.2-2.6,2.6v1.7H3.6C1.6,4.2,0,5.9,0,7.8v44.6
            c0,2,1.6,3.6,3.6,3.6h34.8c2,0,3.6-1.6,3.6-3.6V7.8C42,5.9,40.4,4.2,38.4,4.2z M15.6,2.6c0-0.1,0.1-0.2,0.2-0.2h10.4
            c0.1,0,0.2,0.1,0.2,0.2v5.8c0,0.1-0.1,0.2-0.2,0.2H15.8c-0.1,0-0.2-0.1-0.2-0.2V2.6z M39.6,52.4c0,0.7-0.5,1.2-1.2,1.2H3.6
            c-0.7,0-1.2-0.5-1.2-1.2V7.8c0-0.7,0.5-1.2,1.2-1.2h9.6v1.7c0,1.4,1.2,2.6,2.6,2.6h10.4c1.4,0,2.6-1.2,2.6-2.6V6.7h9.6
            c0.7,0,1.2,0.5,1.2,1.2V52.4z"></path>
        <path class="st0" d="M12.5,23.9l-3.9,3.9l-0.9-0.9c-0.5-0.5-1.2-0.5-1.7,0c-0.5,0.5-0.5,1.2,0,1.7l2.6,2.6l5.6-5.6
            c0.5-0.5,0.5-1.2,0-1.7C13.7,23.4,13,23.4,12.5,23.9z"></path>
        <path class="st0" d="M12.5,14.3l-3.9,3.9l-0.9-0.9c-0.5-0.5-1.2-0.5-1.7,0c-0.5,0.5-0.5,1.2,0,1.7l2.6,2.6l5.6-5.6
            c0.5-0.5,0.5-1.2,0-1.7C13.7,13.8,13,13.8,12.5,14.3z"></path>
        <path class="st0" d="M12.5,33.4l-3.9,3.9l-0.9-0.9c-0.5-0.5-1.2-0.5-1.7,0c-0.5,0.5-0.5,1.2,0,1.7l2.6,2.6l5.6-5.6
            c0.5-0.5,0.5-1.2,0-1.7C13.7,33,13,33,12.5,33.4z"></path>
        <path class="st0" d="M12.5,43l-3.9,3.9l-0.9-0.9c-0.5-0.5-1.2-0.5-1.7,0c-0.5,0.5-0.5,1.2,0,1.7l2.6,2.6l5.6-5.6
            c0.5-0.5,0.5-1.2,0-1.7C13.7,42.5,13,42.5,12.5,43z"></path>
    </g>
</svg>