<svg xmlns="http://www.w3.org/2000/svg" viewBox="0 0 30 22.9" enable-background="new 0 0 30 22.9">
<path fill="#df5a29" d="M11.5 22.9c-.3 0-.6-.1-.8-.3l-10.4-10.3c-.2-.2-.3-.5-.3-.8 0-.3.1-.6.3-.8l10.3-10.4c.5-.5 1.2-.5 1.7 0s.5 1.2 0 1.7l-9.5 9.5 9.4 9.4c.5.5.5 1.2 0 1.7-.1.2-.4.3-.7.3zM18.5 22.9c-.3 0-.6-.1-.8-.3-.5-.5-.5-1.2 0-1.7l9.4-9.4-9.4-9.5c-.5-.5-.5-1.2 0-1.7s1.2-.5 1.7 0l10.3 10.3c.2.2.3.5.3.8 0 .3-.1.6-.3.8l-10.3 10.4c-.2.2-.6.3-.9.3z"></path><circle fill="#df5a29" cx="15" cy="11.5" r="3.4"></circle>
</svg>