<svg xmlns="http://www.w3.org/2000/svg" width="24" height="21" viewBox="0 0 24 21" enable-background="new 0 0 24 21.6"><path class="st15" d="M8.8 5.8c-.9.2-1.5 1.1-1.3 2.1.2.9 1.2 1.5 2.1 1.3 1-.2 1.6-1.2 1.3-2.1-.2-.9-1.1-1.5-2.1-1.3zM16.2 9c-.6 0-1.2.6-1.2 1.2 0 .7.5 1.2 1.2 1.2s1.2-.5 1.2-1.2c0-.6-.5-1.2-1.2-1.2zM21.8 0h-19.6c-1.2 0-2.2 1-2.2 2.2v12.4c0 1.2 1 2.2 2.2 2.2h7.3c-.4.9-1.1 1.7-2.1 2.1v2.4c0 .1.1.3.3.3h8.5c.1 0 .3-.1.3-.3v-2.3c-1-.4-1.7-1.2-2.2-2.1h7.4c1.2 0 2.2-1 2.2-2.2v-12.5c.1-1.2-.9-2.2-2.1-2.2zm-9 10.2l-1.3 1.2h-.3l-.9-.8-.9.2-.4 1.1c-.1.1-.1.2-.2.1l-1.6-.5c-.2 0-.2-.1-.2-.2l.2-1.2c-.3-.2-.5-.4-.6-.6h-1.2c-.1 0-.2-.1-.2-.2l-.4-1.7c0-.1 0-.3.1-.2l1.1-.4c0-.3.1-.6.2-.9l-.6-1.1c-.1-.1 0-.2 0-.3l1.3-1.2h.4l.9.8.8-.2.5-1.1c.1-.1.1-.2.2-.1l1.6.5c.1.1.1.2.1.2l-.2 1.2c.2.2.5.4.6.7l1.1-.1c.1.1.2.1.2.2l.4 1.7c0 .2 0 .3-.1.3l-1.1.4c0 .3-.1.6-.2.9l.6 1c.3.1.2.2.1.3zm6.4 1.1l-.6 1c-.1.1-.1.1-.2.1l-.8-.4c-.2.1-.4.2-.5.3l-.1.8c-.1.1-.1.1-.2.1h-1.2c-.1 0-.2-.1-.1-.1l-.1-.8c-.2-.1-.4-.2-.5-.3l-.9.3c-.1.1-.1 0-.2-.1l-.6-1c0-.1 0-.1.1-.2l.7-.5v-.6l-.7-.5c-.1-.1-.1-.1-.1-.2l.6-1h.2l.8.3c.2-.1.4-.2.5-.3l.1-.8c.1-.1.1-.1.2-.1h1.2c.1 0 .2.1.2.1l.1.8c.2.1.4.2.5.3l.8-.2c.1-.1.1 0 .2.1l.6 1c0 .1 0 .1-.1.2l-.7.5v.6l.7.5c.1-.1.2 0 .1.1z"></path></svg>