<svg class="share" viewBox="0 0 24 23.7" enable-background="new 0 0 24 23.7" width="24" height="23">
    <circle cx="12" cy="3.7" r="3.7"></circle>
    <circle cx="20.3" cy="18.1" r="3.7"></circle>
    <circle cx="3.7" cy="18.1" r="3.7"></circle>
    <path d="M16.6 5.9c2.3 1.5 3.9 4.1 4 7 .7 0 1.3.2 1.8.5v-.2c0-3.9-2.2-7.3-5.4-9.1.1.7-.1 1.3-.4 1.8zM3.4 13c.1-2.9 1.7-5.5 4-7-.3-.6-.5-1.2-.5-1.9-3.2 1.8-5.4 5.2-5.4 9.1v.2c.6-.2 1.2-.4 1.9-.4zM16 20.9c-1.2.6-2.6 1-4 1s-2.8-.4-4-1c-.4.5-.8 1-1.3 1.4 1.6.9 3.4 1.5 5.3 1.5s3.8-.5 5.3-1.5c-.5-.4-.9-.9-1.3-1.4z"></path>
</svg>