<svg width="46" height="46">
    <g transform="rotate(0, 23, 23) scale(1 -1) translate(0 -46)">
    <circle cx="23" cy="23" r="22" class="circle--top circle--gray" stroke-width="2" stroke="#ccc" fill="transparent"/>
    </g>
    <circle cx="23" cy="23" r="22" class="circle--bottom circle--gray" stroke-width="2" stroke="#ccc" fill="transparent"/>
    <path transform="translate(14, 14)" d="M11.6.4c1.8.5 3.3 1.6 4.4 3h-3.2c-.3-1-.7-2-1.2-3zm-2.6 17.6c-.4 0-.8 0-1.2-.1-.6-1.1-1-2.2-1.4-3.3h5.2c-.4 1.1-.8 2.2-1.4 3.3-.4.1-.8.1-1.2.1zm-2.5-.3c-.5-1-.9-2-1.2-3h-3.3c1.1 1.4 2.7 2.5 4.5 3zm6.2-3.1c-.3 1-.7 2-1.2 3 1.8-.5 3.4-1.6 4.5-3h-3.3zm-11.5-1.1c-.7-1.2-1.1-2.5-1.2-3.9h4.3c.1 1.3.3 2.6.6 3.9h-3.7zm4.2-3.9h7.3c-.1 1.3-.3 2.6-.7 3.9h-5.9c-.4-1.3-.6-2.6-.7-3.9zm8.3 0h4.3c-.1 1.4-.5 2.7-1.2 3.9h-3.8c.4-1.3.6-2.6.7-3.9zm-13.7-1.2c.1-1.4.5-2.7 1.2-3.8h3.6c-.3 1.3-.5 2.5-.5 3.8h-4.3zm5.8-3.8h6.4c.3 1.3.5 2.6.5 3.9h-7.4c0-1.4.2-2.6.5-3.9zm7.4 0h3.6c.7 1.1 1.1 2.4 1.2 3.8h-4.3c0-1.3-.2-2.5-.5-3.8zm-11.2-1.2c1.1-1.4 2.7-2.5 4.4-3-.5 1-.9 2-1.2 3h-3.2zm5.6-3.3c-.6 1.1-1.1 2.2-1.5 3.3h5.7c-.4-1.1-.8-2.2-1.4-3.3-.4-.1-.9-.1-1.4-.1-.5 0-1 0-1.4.1z"></path>
    <g transform="rotate(-180, 23, 23)">
    <circle id="fon" cx="23" cy="23" r="22" class="circle--top circle--orange" stroke="#e35b29" stroke-width="2"   stroke-dasharray="69.5 69.5" fill="none" />
    </g>
    <g transform="rotate(0, 23, 23) scale(-1, 1) translate(-46 0)">
    <circle id="fon" cx="23" cy="23" r="22" class="circle--bottom circle--orange" stroke="#e35b29" stroke-width="2"   stroke-dasharray="69.5 69.5" fill="none" />
    <g>
</svg>