<svg xmlns="http://www.w3.org/2000/svg" width="56" height="56" viewBox="0 0 56 56" enable-background="new 0 0 56 56">
    <g class="brief_icon">
        <path class="st4" d="M28 56c-.7 0-1.2-.5-1.2-1.2v-53.6c0-.7.5-1.2 1.2-1.2s1.2.5 1.2 1.2v53.6c0 .7-.5 1.2-1.2 1.2zM28 56h-1l-.3-.3c-8.5-6.8-13.3-16.9-13.3-27.7s4.8-20.9 13.2-27.7l.3-.3h1c.7 0 1.2.5 1.2 1.2s-.4 1.2-1.1 1.2h-.2c-7.6 6.3-12 15.6-12 25.6 0 9.9 4.4 19.2 12 25.6h.2c.7 0 1.2.5 1.2 1.2s-.5 1.2-1.2 1.2zM28 16.8c-7.2 0-14.2-2.1-20.1-6.2-.6-.4-.7-1.2-.3-1.7.4-.6 1.1-.7 1.7-.3 5.5 3.8 12 5.8 18.7 5.8 6.7 0 13.2-2 18.7-5.8.5-.4 1.3-.2 1.7.3.4.5.2 1.3-.3 1.7-5.9 4-12.9 6.2-20.1 6.2zM54.8 29.2h-53.6c-.7 0-1.2-.5-1.2-1.2s.5-1.2 1.2-1.2h53.6c.7 0 1.2.5 1.2 1.2s-.5 1.2-1.2 1.2zM28 56c-15.4 0-28-12.6-28-28s12.6-28 28-28 28 12.6 28 28-12.6 28-28 28zm0-53.6c-14.1 0-25.6 11.5-25.6 25.6s11.5 25.6 25.6 25.6c14.1 0 25.6-11.5 25.6-25.6s-11.5-25.6-25.6-25.6zM8.6 46.7c-.4 0-.8-.2-1-.5-.4-.5-.2-1.3.3-1.7 5.9-4.1 12.9-6.2 20.1-6.2 7.2 0 14.2 2.1 20.1 6.2.5.4.7 1.1.3 1.7-.4.5-1.1.7-1.7.3-5.5-3.8-12-5.8-18.7-5.8-6.7 0-13.2 2-18.7 5.8-.3.1-.5.2-.7.2zM28 56c-.7 0-1.2-.5-1.2-1.2s.5-1.2 1.2-1.2h.2c7.6-6.3 12-15.6 12-25.6 0-9.9-4.4-19.2-12-25.6h-.2c-.7 0-1.2-.5-1.2-1.2s.5-1.2 1.2-1.2h1l.3.3c8.5 6.8 13.3 16.9 13.3 27.7s-4.8 20.9-13.2 27.7l-.3.3h-1.1z"></path>
    </g>
</svg>